<svg xmlns="http://www.w3.org/2000/svg" width="980" height="520" viewBox="0 0 980 520">
<rect width="100%" height="100%" fill="white" />
<text x="490.0" y="28" font-size="18" text-anchor="middle">Terminal filter mass A={14,23,61,89}</text>
<line x1="70" y1="50.00" x2="950" y2="50.00" stroke="#ddd" stroke-width="1" />
<line x1="70" y1="150.00" x2="950" y2="150.00" stroke="#ddd" stroke-width="1" />
<line x1="70" y1="250.00" x2="950" y2="250.00" stroke="#ddd" stroke-width="1" />
<line x1="70" y1="350.00" x2="950" y2="350.00" stroke="#ddd" stroke-width="1" />
<line x1="70" y1="450.00" x2="950" y2="450.00" stroke="#ddd" stroke-width="1" />
<line x1="70" y1="50" x2="70" y2="450" stroke="#333" />
<line x1="70" y1="450" x2="950" y2="450" stroke="#333" />
<text x="70.00" y="490" font-size="11" text-anchor="middle">300000</text>
<text x="298.15" y="490" font-size="11" text-anchor="middle">1000000</text>
<text x="950.00" y="490" font-size="11" text-anchor="middle">3000000</text>
<text x="60" y="454.00" font-size="11" text-anchor="end">0.000</text>
<text x="60" y="354.00" font-size="11" text-anchor="end">0.158</text>
<text x="60" y="254.00" font-size="11" text-anchor="end">0.317</text>
<text x="60" y="154.00" font-size="11" text-anchor="end">0.475</text>
<text x="60" y="54.00" font-size="11" text-anchor="end">0.634</text>
<polyline fill="none" stroke="#1f77b4" stroke-width="2" points="70.00,64.76 70.00,308.17 70.00,438.20 298.15,59.40 298.15,307.11 298.15,439.34 950.00,60.64 950.00,301.63 950.00,438.24" /><polyline fill="none" stroke="#d62728" stroke-width="2" points="70.00,50.00 70.00,301.11 70.00,439.82 298.15,55.34 298.15,299.62 298.15,438.92 950.00,56.59 950.00,300.58 950.00,438.58" /><polyline fill="none" stroke="#2ca02c" stroke-width="2" points="70.00,56.79 70.00,297.91 70.00,437.91 298.15,55.16 298.15,301.52 298.15,437.83 950.00,56.32 950.00,300.01 950.00,437.84" />
<line x1="810" y1="50" x2="835" y2="50" stroke="#1f77b4" stroke-width="3" /><text x="842" y="55" font-size="13">twin</text><line x1="810" y1="70" x2="835" y2="70" stroke="#d62728" stroke-width="3" /><text x="842" y="75" font-size="13">cousin</text><line x1="810" y1="90" x2="835" y2="90" stroke="#2ca02c" stroke-width="3" /><text x="842" y="95" font-size="13">sexy</text>
<text x="490.0" y="512" font-size="12" text-anchor="middle">N</text>
</svg>
