<svg xmlns="http://www.w3.org/2000/svg" width="720" height="460" viewBox="0 0 720 460">
<rect width="100%" height="100%" fill="#fff"/>
<text x="360.0" y="25" text-anchor="middle" font-family="Arial" font-size="17" fill="#111827">Z_s ECDF vs uniform - quadratic - 1000 seeds</text>
<line x1="62.0" y1="44" x2="62.0" y2="398" stroke="#e5e7eb"/><line x1="62" y1="398.0" x2="692" y2="398.0" stroke="#e5e7eb"/><text x="62.0" y="418" text-anchor="middle" font-family="Arial" font-size="11" fill="#4b5563">0.00</text><text x="54" y="402.0" text-anchor="end" font-family="Arial" font-size="11" fill="#4b5563">0.00</text>
<line x1="219.5" y1="44" x2="219.5" y2="398" stroke="#e5e7eb"/><line x1="62" y1="309.5" x2="692" y2="309.5" stroke="#e5e7eb"/><text x="219.5" y="418" text-anchor="middle" font-family="Arial" font-size="11" fill="#4b5563">0.25</text><text x="54" y="313.5" text-anchor="end" font-family="Arial" font-size="11" fill="#4b5563">0.25</text>
<line x1="377.0" y1="44" x2="377.0" y2="398" stroke="#e5e7eb"/><line x1="62" y1="221.0" x2="692" y2="221.0" stroke="#e5e7eb"/><text x="377.0" y="418" text-anchor="middle" font-family="Arial" font-size="11" fill="#4b5563">0.50</text><text x="54" y="225.0" text-anchor="end" font-family="Arial" font-size="11" fill="#4b5563">0.50</text>
<line x1="534.5" y1="44" x2="534.5" y2="398" stroke="#e5e7eb"/><line x1="62" y1="132.5" x2="692" y2="132.5" stroke="#e5e7eb"/><text x="534.5" y="418" text-anchor="middle" font-family="Arial" font-size="11" fill="#4b5563">0.75</text><text x="54" y="136.5" text-anchor="end" font-family="Arial" font-size="11" fill="#4b5563">0.75</text>
<line x1="692.0" y1="44" x2="692.0" y2="398" stroke="#e5e7eb"/><line x1="62" y1="44.0" x2="692" y2="44.0" stroke="#e5e7eb"/><text x="692.0" y="418" text-anchor="middle" font-family="Arial" font-size="11" fill="#4b5563">1.00</text><text x="54" y="48.0" text-anchor="end" font-family="Arial" font-size="11" fill="#4b5563">1.00</text>
<line x1="62" y1="398" x2="692" y2="398" stroke="#111827"/><line x1="62" y1="44" x2="62" y2="398" stroke="#111827"/><line x1="62" y1="398" x2="692" y2="44" stroke="#6b7280" stroke-width="1.4" stroke-dasharray="6 5"/>
<text x="360.0" y="442" text-anchor="middle" font-family="Arial" font-size="13" fill="#374151">Z_s</text><text x="18" y="221.0" transform="rotate(-90 18 221.0)" text-anchor="middle" font-family="Arial" font-size="13" fill="#374151">Empirical CDF</text>
<polyline points="62.7,397.6 69.4,391.6 79.2,385.6 90.9,379.6 99.6,373.6 108.5,367.6 116.6,361.5 127.1,355.5 136.4,349.9 150.5,343.8 159.2,337.8 168.2,331.8 181.6,325.8 193.8,319.8 206.6,313.7 217.8,307.7 231.8,301.7 244.6,295.7 253.9,289.7 266.7,283.7 276.9,277.6 288.8,271.6 300.1,265.6 309.5,259.9 321.9,253.9 334.4,247.9 350.4,241.9 363.0,235.9 375.3,229.8 385.5,223.8 396.1,217.8 403.6,211.8 413.5,205.8 424.4,199.8 436.6,193.7 445.3,187.7 454.9,181.7 467.3,176.0 477.5,170.0 487.1,164.0 495.6,158.0 505.0,152.0 514.3,146.0 525.9,139.9 533.9,133.9 543.3,127.9 554.0,121.9 562.5,115.9 571.9,109.8 580.2,103.8 590.7,97.8 600.5,91.8 611.9,86.1 622.8,80.1 630.1,74.1 644.4,68.1 659.9,62.1 675.9,56.0 685.5,50.0 691.5,44.0" fill="none" stroke="#4c78a8" stroke-width="2" stroke-linecap="round"/>
<polyline points="62.9,397.6 75.0,391.6 86.5,385.6 94.4,379.6 108.9,373.6 115.1,367.6 134.5,361.5 145.9,355.5 153.3,349.9 160.2,343.8 172.5,337.8 181.2,331.8 188.3,325.8 200.8,319.8 210.6,313.7 221.8,307.7 233.9,301.7 251.2,295.7 266.5,289.7 280.7,283.7 293.3,277.6 303.0,271.6 321.6,265.6 332.8,259.9 346.6,253.9 359.6,247.9 366.3,241.9 372.7,235.9 380.4,229.8 388.7,223.8 397.1,217.8 407.9,211.8 417.0,205.8 429.5,199.8 438.4,193.7 449.6,187.7 458.3,181.7 470.8,176.0 482.3,170.0 494.7,164.0 505.7,158.0 518.1,152.0 526.5,146.0 535.2,139.9 544.4,133.9 554.1,127.9 563.3,121.9 571.9,115.9 585.4,109.8 594.7,103.8 603.2,97.8 613.5,91.8 619.8,86.1 633.1,80.1 644.6,74.1 657.5,68.1 665.4,62.1 672.4,56.0 681.1,50.0 690.9,44.0" fill="none" stroke="#f58518" stroke-width="2" stroke-linecap="round"/>
<polyline points="62.2,397.6 69.3,391.6 81.7,385.6 91.6,379.6 103.8,373.6 112.8,367.6 123.6,361.5 137.9,355.5 149.3,349.9 155.2,343.8 161.0,337.8 173.3,331.8 191.7,325.8 198.6,319.8 207.1,313.7 222.5,307.7 234.7,301.7 243.4,295.7 251.9,289.7 261.4,283.7 271.5,277.6 278.1,271.6 291.7,265.6 302.5,259.9 315.7,253.9 329.4,247.9 346.1,241.9 355.9,235.9 363.7,229.8 377.2,223.8 387.2,217.8 395.6,211.8 402.5,205.8 412.7,199.8 421.6,193.7 431.3,187.7 443.7,181.7 456.3,176.0 466.5,170.0 476.1,164.0 489.7,158.0 500.7,152.0 510.6,146.0 526.8,139.9 535.4,133.9 547.5,127.9 557.0,121.9 566.3,115.9 574.5,109.8 585.5,103.8 594.3,97.8 604.8,91.8 616.0,86.1 624.4,80.1 637.1,74.1 649.4,68.1 661.2,62.1 668.8,56.0 677.3,50.0 692.0,44.0" fill="none" stroke="#54a24b" stroke-width="2" stroke-linecap="round"/>
<polyline points="63.2,397.6 73.4,391.6 82.1,385.6 93.1,379.6 105.6,373.6 118.2,367.6 128.1,361.5 137.2,355.5 144.3,349.9 152.7,343.8 162.8,337.8 174.6,331.8 189.3,325.8 204.5,319.8 211.7,313.7 223.5,307.7 237.9,301.7 256.0,295.7 266.6,289.7 276.1,283.7 286.5,277.6 298.8,271.6 316.0,265.6 327.8,259.9 335.4,253.9 340.5,247.9 352.9,241.9 359.5,235.9 371.6,229.8 381.6,223.8 389.9,217.8 403.8,211.8 413.5,205.8 423.4,199.8 433.9,193.7 445.3,187.7 452.9,181.7 461.2,176.0 472.8,170.0 486.1,164.0 498.5,158.0 513.0,152.0 521.5,146.0 532.3,139.9 543.3,133.9 552.3,127.9 560.4,121.9 567.8,115.9 578.5,109.8 590.1,103.8 604.1,97.8 615.1,91.8 621.5,86.1 629.3,80.1 638.5,74.1 647.7,68.1 657.9,62.1 670.3,56.0 679.6,50.0 691.4,44.0" fill="none" stroke="#b279a2" stroke-width="2" stroke-linecap="round"/>
<line x1="72" y1="58" x2="96" y2="58" stroke="#4c78a8" stroke-width="3"/><text x="103" y="62" font-family="Arial" font-size="12" fill="#111827">MT19937</text><line x1="72" y1="77" x2="96" y2="77" stroke="#f58518" stroke-width="3"/><text x="103" y="81" font-family="Arial" font-size="12" fill="#111827">PCG64</text><line x1="72" y1="96" x2="96" y2="96" stroke="#54a24b" stroke-width="3"/><text x="103" y="100" font-family="Arial" font-size="12" fill="#111827">Philox</text><line x1="72" y1="115" x2="96" y2="115" stroke="#b279a2" stroke-width="3"/><text x="103" y="119" font-family="Arial" font-size="12" fill="#111827">SFC64</text>
</svg>
