<svg xmlns="http://www.w3.org/2000/svg" width="720" height="460" viewBox="0 0 720 460">
<rect width="100%" height="100%" fill="#fff"/>
<text x="360.0" y="25" text-anchor="middle" font-family="Arial" font-size="17" fill="#111827">Z_s ECDF vs uniform - identity - 1000 seeds</text>
<line x1="62.0" y1="44" x2="62.0" y2="398" stroke="#e5e7eb"/>
<line x1="62" y1="398.0" x2="692" y2="398.0" stroke="#e5e7eb"/>
<text x="62.0" y="418" text-anchor="middle" font-family="Arial" font-size="11" fill="#4b5563">0.00</text>
<text x="54" y="402.0" text-anchor="end" font-family="Arial" font-size="11" fill="#4b5563">0.00</text>
<line x1="219.5" y1="44" x2="219.5" y2="398" stroke="#e5e7eb"/>
<line x1="62" y1="309.5" x2="692" y2="309.5" stroke="#e5e7eb"/>
<text x="219.5" y="418" text-anchor="middle" font-family="Arial" font-size="11" fill="#4b5563">0.25</text>
<text x="54" y="313.5" text-anchor="end" font-family="Arial" font-size="11" fill="#4b5563">0.25</text>
<line x1="377.0" y1="44" x2="377.0" y2="398" stroke="#e5e7eb"/>
<line x1="62" y1="221.0" x2="692" y2="221.0" stroke="#e5e7eb"/>
<text x="377.0" y="418" text-anchor="middle" font-family="Arial" font-size="11" fill="#4b5563">0.50</text>
<text x="54" y="225.0" text-anchor="end" font-family="Arial" font-size="11" fill="#4b5563">0.50</text>
<line x1="534.5" y1="44" x2="534.5" y2="398" stroke="#e5e7eb"/>
<line x1="62" y1="132.5" x2="692" y2="132.5" stroke="#e5e7eb"/>
<text x="534.5" y="418" text-anchor="middle" font-family="Arial" font-size="11" fill="#4b5563">0.75</text>
<text x="54" y="136.5" text-anchor="end" font-family="Arial" font-size="11" fill="#4b5563">0.75</text>
<line x1="692.0" y1="44" x2="692.0" y2="398" stroke="#e5e7eb"/>
<line x1="62" y1="44.0" x2="692" y2="44.0" stroke="#e5e7eb"/>
<text x="692.0" y="418" text-anchor="middle" font-family="Arial" font-size="11" fill="#4b5563">1.00</text>
<text x="54" y="48.0" text-anchor="end" font-family="Arial" font-size="11" fill="#4b5563">1.00</text>
<line x1="62" y1="398" x2="692" y2="398" stroke="#111827"/>
<line x1="62" y1="44" x2="62" y2="398" stroke="#111827"/>
<line x1="62" y1="398" x2="692" y2="44" stroke="#6b7280" stroke-width="1.4" stroke-dasharray="6 5"/>
<text x="360.0" y="442" text-anchor="middle" font-family="Arial" font-size="13" fill="#374151">Z_s</text>
<text x="18" y="221.0" transform="rotate(-90 18 221.0)" text-anchor="middle" font-family="Arial" font-size="13" fill="#374151">Empirical CDF</text>
<polyline points="62.9,397.6 72.8,391.6 79.6,385.6 87.1,379.6 94.8,373.6 105.3,367.6 114.5,361.5 130.4,355.5 141.7,349.9 151.7,343.8 162.5,337.8 173.2,331.8 186.4,325.8 204.2,319.8 214.8,313.7 223.9,307.7 230.2,301.7 239.8,295.7 248.9,289.7 260.4,283.7 268.0,277.6 276.7,271.6 294.1,265.6 303.6,259.9 312.9,253.9 323.0,247.9 338.2,241.9 358.5,235.9 368.1,229.8 378.5,223.8 388.4,217.8 405.6,211.8 416.5,205.8 426.4,199.8 438.6,193.7 458.6,187.7 473.0,181.7 482.3,176.0 491.7,170.0 501.1,164.0 508.2,158.0 516.6,152.0 526.0,146.0 536.5,139.9 543.4,133.9 551.0,127.9 558.7,121.9 568.6,115.9 577.9,109.8 587.6,103.8 595.2,97.8 603.0,91.8 612.9,86.1 627.1,80.1 641.3,74.1 649.3,68.1 663.1,62.1 673.6,56.0 684.8,50.0 691.8,44.0" fill="none" stroke="#4c78a8" stroke-width="2" stroke-linecap="round"/>
<polyline points="62.4,397.6 71.9,391.6 85.0,385.6 96.8,379.6 108.1,373.6 118.4,367.6 129.0,361.5 136.7,355.5 147.2,349.9 158.9,343.8 172.1,337.8 186.8,331.8 196.0,325.8 206.8,319.8 221.3,313.7 232.7,307.7 246.8,301.7 260.1,295.7 271.5,289.7 283.9,283.7 301.0,277.6 313.0,271.6 323.5,265.6 333.9,259.9 345.7,253.9 353.4,247.9 365.6,241.9 372.0,235.9 386.9,229.8 395.4,223.8 406.1,217.8 415.6,211.8 428.1,205.8 432.8,199.8 440.7,193.7 452.5,187.7 459.4,181.7 469.4,176.0 480.5,170.0 493.4,164.0 500.9,158.0 511.4,152.0 519.4,146.0 527.6,139.9 534.4,133.9 544.1,127.9 553.3,121.9 563.2,115.9 568.9,109.8 580.3,103.8 598.2,97.8 612.9,91.8 623.4,86.1 632.1,80.1 643.9,74.1 652.7,68.1 664.1,62.1 674.2,56.0 680.7,50.0 690.8,44.0" fill="none" stroke="#f58518" stroke-width="2" stroke-linecap="round"/>
<polyline points="62.8,397.6 74.2,391.6 82.2,385.6 95.3,379.6 103.4,373.6 112.0,367.6 124.6,361.5 137.2,355.5 147.5,349.9 160.7,343.8 168.9,337.8 183.7,331.8 192.1,325.8 202.1,319.8 213.2,313.7 219.9,307.7 230.9,301.7 248.3,295.7 259.8,289.7 270.1,283.7 281.2,277.6 295.8,271.6 309.6,265.6 320.5,259.9 329.7,253.9 340.7,247.9 349.8,241.9 362.6,235.9 370.0,229.8 382.3,223.8 393.5,217.8 401.7,211.8 409.1,205.8 417.7,199.8 425.6,193.7 438.4,187.7 447.3,181.7 455.6,176.0 458.2,170.0 471.0,164.0 481.6,158.0 492.8,152.0 500.2,146.0 511.0,139.9 521.7,133.9 534.9,127.9 546.7,121.9 556.9,115.9 570.3,109.8 577.7,103.8 586.5,97.8 599.2,91.8 617.8,86.1 623.8,80.1 634.7,74.1 646.6,68.1 657.6,62.1 666.8,56.0 681.5,50.0 692.0,44.0" fill="none" stroke="#54a24b" stroke-width="2" stroke-linecap="round"/>
<polyline points="63.3,397.6 75.2,391.6 86.3,385.6 97.1,379.6 104.0,373.6 116.4,367.6 128.9,361.5 141.4,355.5 151.0,349.9 163.8,343.8 172.3,337.8 183.3,331.8 191.1,325.8 201.2,319.8 215.0,313.7 223.7,307.7 230.5,301.7 238.5,295.7 248.5,289.7 259.8,283.7 274.8,277.6 285.1,271.6 296.5,265.6 307.4,259.9 318.9,253.9 330.4,247.9 341.1,241.9 351.9,235.9 365.4,229.8 376.5,223.8 387.3,217.8 398.3,211.8 409.2,205.8 421.2,199.8 429.7,193.7 441.6,187.7 454.9,181.7 465.1,176.0 472.5,170.0 478.8,164.0 492.0,158.0 503.0,152.0 514.9,146.0 523.9,139.9 533.1,133.9 544.2,127.9 557.0,121.9 569.8,115.9 576.8,109.8 589.7,103.8 601.0,97.8 614.8,91.8 622.8,86.1 631.0,80.1 640.8,74.1 651.0,68.1 658.2,62.1 669.4,56.0 681.4,50.0 691.1,44.0" fill="none" stroke="#b279a2" stroke-width="2" stroke-linecap="round"/>
<line x1="72" y1="58" x2="96" y2="58" stroke="#4c78a8" stroke-width="3"/>
<text x="103" y="62" font-family="Arial" font-size="12" fill="#111827">MT19937</text>
<line x1="72" y1="77" x2="96" y2="77" stroke="#f58518" stroke-width="3"/>
<text x="103" y="81" font-family="Arial" font-size="12" fill="#111827">PCG64</text>
<line x1="72" y1="96" x2="96" y2="96" stroke="#54a24b" stroke-width="3"/>
<text x="103" y="100" font-family="Arial" font-size="12" fill="#111827">Philox</text>
<line x1="72" y1="115" x2="96" y2="115" stroke="#b279a2" stroke-width="3"/>
<text x="103" y="119" font-family="Arial" font-size="12" fill="#111827">SFC64</text>
</svg>
