<svg xmlns="http://www.w3.org/2000/svg" width="720" height="460" viewBox="0 0 720 460">
<rect width="100%" height="100%" fill="#fff"/>
<text x="360.0" y="25" text-anchor="middle" font-family="Arial" font-size="17" fill="#111827">Z_s ECDF vs uniform - rare_099 - 1000 seeds</text>
<line x1="62.0" y1="44" x2="62.0" y2="398" stroke="#e5e7eb"/><line x1="62" y1="398.0" x2="692" y2="398.0" stroke="#e5e7eb"/><text x="62.0" y="418" text-anchor="middle" font-family="Arial" font-size="11" fill="#4b5563">0.00</text><text x="54" y="402.0" text-anchor="end" font-family="Arial" font-size="11" fill="#4b5563">0.00</text>
<line x1="219.5" y1="44" x2="219.5" y2="398" stroke="#e5e7eb"/><line x1="62" y1="309.5" x2="692" y2="309.5" stroke="#e5e7eb"/><text x="219.5" y="418" text-anchor="middle" font-family="Arial" font-size="11" fill="#4b5563">0.25</text><text x="54" y="313.5" text-anchor="end" font-family="Arial" font-size="11" fill="#4b5563">0.25</text>
<line x1="377.0" y1="44" x2="377.0" y2="398" stroke="#e5e7eb"/><line x1="62" y1="221.0" x2="692" y2="221.0" stroke="#e5e7eb"/><text x="377.0" y="418" text-anchor="middle" font-family="Arial" font-size="11" fill="#4b5563">0.50</text><text x="54" y="225.0" text-anchor="end" font-family="Arial" font-size="11" fill="#4b5563">0.50</text>
<line x1="534.5" y1="44" x2="534.5" y2="398" stroke="#e5e7eb"/><line x1="62" y1="132.5" x2="692" y2="132.5" stroke="#e5e7eb"/><text x="534.5" y="418" text-anchor="middle" font-family="Arial" font-size="11" fill="#4b5563">0.75</text><text x="54" y="136.5" text-anchor="end" font-family="Arial" font-size="11" fill="#4b5563">0.75</text>
<line x1="692.0" y1="44" x2="692.0" y2="398" stroke="#e5e7eb"/><line x1="62" y1="44.0" x2="692" y2="44.0" stroke="#e5e7eb"/><text x="692.0" y="418" text-anchor="middle" font-family="Arial" font-size="11" fill="#4b5563">1.00</text><text x="54" y="48.0" text-anchor="end" font-family="Arial" font-size="11" fill="#4b5563">1.00</text>
<line x1="62" y1="398" x2="692" y2="398" stroke="#111827"/><line x1="62" y1="44" x2="62" y2="398" stroke="#111827"/><line x1="62" y1="398" x2="692" y2="44" stroke="#6b7280" stroke-width="1.4" stroke-dasharray="6 5"/>
<text x="360.0" y="442" text-anchor="middle" font-family="Arial" font-size="13" fill="#374151">Z_s</text><text x="18" y="221.0" transform="rotate(-90 18 221.0)" text-anchor="middle" font-family="Arial" font-size="13" fill="#374151">Empirical CDF</text>
<polyline points="64.0,397.6 79.2,391.6 90.3,385.6 97.0,379.6 104.9,373.6 113.9,367.6 122.5,361.5 131.8,355.5 138.8,349.9 153.0,343.8 160.3,337.8 173.1,331.8 184.6,325.8 197.4,319.8 207.9,313.7 216.2,307.7 223.6,301.7 233.9,295.7 243.2,289.7 254.7,283.7 262.4,277.6 268.3,271.6 278.7,265.6 287.5,259.9 297.8,253.9 309.7,247.9 318.3,241.9 328.0,235.9 339.8,229.8 354.6,223.8 367.1,217.8 381.4,211.8 393.5,205.8 404.9,199.8 414.0,193.7 424.7,187.7 435.2,181.7 446.3,176.0 456.6,170.0 467.7,164.0 477.2,158.0 492.5,152.0 503.5,146.0 514.0,139.9 524.5,133.9 538.3,127.9 551.7,121.9 563.7,115.9 574.0,109.8 583.9,103.8 593.9,97.8 603.6,91.8 612.8,86.1 623.1,80.1 633.2,74.1 641.7,68.1 650.7,62.1 664.3,56.0 678.2,50.0 690.9,44.0" fill="none" stroke="#4c78a8" stroke-width="2" stroke-linecap="round"/>
<polyline points="62.8,397.6 72.4,391.6 81.9,385.6 92.0,379.6 102.9,373.6 113.3,367.6 125.6,361.5 136.1,355.5 142.0,349.9 149.7,343.8 157.8,337.8 169.8,331.8 182.3,325.8 196.0,319.8 210.1,313.7 222.8,307.7 232.0,301.7 244.7,295.7 255.1,289.7 268.3,283.7 280.1,277.6 293.7,271.6 300.7,265.6 310.4,259.9 320.5,253.9 333.0,247.9 344.0,241.9 352.3,235.9 363.5,229.8 371.6,223.8 381.1,217.8 395.1,211.8 408.2,205.8 417.8,199.8 429.9,193.7 441.6,187.7 451.6,181.7 463.8,176.0 473.3,170.0 486.0,164.0 496.9,158.0 506.3,152.0 519.5,146.0 527.8,139.9 539.6,133.9 553.9,127.9 563.8,121.9 573.8,115.9 582.1,109.8 593.5,103.8 604.4,97.8 618.2,91.8 625.1,86.1 631.4,80.1 642.7,74.1 655.8,68.1 665.2,62.1 674.7,56.0 683.9,50.0 691.7,44.0" fill="none" stroke="#f58518" stroke-width="2" stroke-linecap="round"/>
<polyline points="62.1,397.6 70.1,391.6 75.9,385.6 83.5,379.6 90.9,373.6 93.7,367.6 104.7,361.5 111.3,355.5 126.1,349.9 134.0,343.8 146.0,337.8 153.8,331.8 162.8,325.8 167.9,319.8 183.2,313.7 197.7,307.7 208.3,301.7 219.3,295.7 228.2,289.7 239.5,283.7 251.2,277.6 269.9,271.6 281.7,265.6 294.8,259.9 307.9,253.9 314.4,247.9 324.5,241.9 334.2,235.9 343.9,229.8 358.4,223.8 367.1,217.8 385.1,211.8 397.4,205.8 409.8,199.8 418.2,193.7 428.4,187.7 434.9,181.7 446.2,176.0 456.1,170.0 463.7,164.0 478.2,158.0 491.9,152.0 499.3,146.0 507.1,139.9 523.6,133.9 536.8,127.9 551.6,121.9 562.7,115.9 569.1,109.8 578.4,103.8 587.0,97.8 597.1,91.8 606.7,86.1 622.2,80.1 630.7,74.1 642.0,68.1 655.3,62.1 666.0,56.0 675.7,50.0 691.8,44.0" fill="none" stroke="#54a24b" stroke-width="2" stroke-linecap="round"/>
<polyline points="62.1,397.6 71.3,391.6 81.4,385.6 90.9,379.6 102.4,373.6 111.6,367.6 118.2,361.5 128.1,355.5 133.5,349.9 145.8,343.8 157.2,337.8 167.1,331.8 177.5,325.8 191.1,319.8 202.3,313.7 211.0,307.7 222.6,301.7 232.7,295.7 239.7,289.7 248.2,283.7 259.6,277.6 271.0,271.6 280.4,265.6 288.8,259.9 298.6,253.9 308.6,247.9 317.3,241.9 327.8,235.9 336.7,229.8 349.6,223.8 359.4,217.8 366.3,211.8 375.8,205.8 386.4,199.8 396.9,193.7 408.2,187.7 416.1,181.7 424.8,176.0 433.1,170.0 450.7,164.0 464.0,158.0 473.6,152.0 490.6,146.0 500.3,139.9 510.2,133.9 518.7,127.9 530.0,121.9 541.4,115.9 551.5,109.8 563.9,103.8 571.5,97.8 583.7,91.8 593.2,86.1 605.8,80.1 616.6,74.1 628.5,68.1 643.0,62.1 657.4,56.0 671.1,50.0 691.8,44.0" fill="none" stroke="#b279a2" stroke-width="2" stroke-linecap="round"/>
<line x1="72" y1="58" x2="96" y2="58" stroke="#4c78a8" stroke-width="3"/><text x="103" y="62" font-family="Arial" font-size="12" fill="#111827">MT19937</text><line x1="72" y1="77" x2="96" y2="77" stroke="#f58518" stroke-width="3"/><text x="103" y="81" font-family="Arial" font-size="12" fill="#111827">PCG64</text><line x1="72" y1="96" x2="96" y2="96" stroke="#54a24b" stroke-width="3"/><text x="103" y="100" font-family="Arial" font-size="12" fill="#111827">Philox</text><line x1="72" y1="115" x2="96" y2="115" stroke="#b279a2" stroke-width="3"/><text x="103" y="119" font-family="Arial" font-size="12" fill="#111827">SFC64</text>
</svg>
