<svg xmlns="http://www.w3.org/2000/svg" width="720" height="460" viewBox="0 0 720 460">
<rect width="100%" height="100%" fill="#fff"/>
<text x="360.0" y="25" text-anchor="middle" font-family="Arial" font-size="17" fill="#111827">Z_s ECDF vs uniform - sin - 1000 seeds</text>
<line x1="62.0" y1="44" x2="62.0" y2="398" stroke="#e5e7eb"/>
<line x1="62" y1="398.0" x2="692" y2="398.0" stroke="#e5e7eb"/>
<text x="62.0" y="418" text-anchor="middle" font-family="Arial" font-size="11" fill="#4b5563">0.00</text>
<text x="54" y="402.0" text-anchor="end" font-family="Arial" font-size="11" fill="#4b5563">0.00</text>
<line x1="219.5" y1="44" x2="219.5" y2="398" stroke="#e5e7eb"/>
<line x1="62" y1="309.5" x2="692" y2="309.5" stroke="#e5e7eb"/>
<text x="219.5" y="418" text-anchor="middle" font-family="Arial" font-size="11" fill="#4b5563">0.25</text>
<text x="54" y="313.5" text-anchor="end" font-family="Arial" font-size="11" fill="#4b5563">0.25</text>
<line x1="377.0" y1="44" x2="377.0" y2="398" stroke="#e5e7eb"/>
<line x1="62" y1="221.0" x2="692" y2="221.0" stroke="#e5e7eb"/>
<text x="377.0" y="418" text-anchor="middle" font-family="Arial" font-size="11" fill="#4b5563">0.50</text>
<text x="54" y="225.0" text-anchor="end" font-family="Arial" font-size="11" fill="#4b5563">0.50</text>
<line x1="534.5" y1="44" x2="534.5" y2="398" stroke="#e5e7eb"/>
<line x1="62" y1="132.5" x2="692" y2="132.5" stroke="#e5e7eb"/>
<text x="534.5" y="418" text-anchor="middle" font-family="Arial" font-size="11" fill="#4b5563">0.75</text>
<text x="54" y="136.5" text-anchor="end" font-family="Arial" font-size="11" fill="#4b5563">0.75</text>
<line x1="692.0" y1="44" x2="692.0" y2="398" stroke="#e5e7eb"/>
<line x1="62" y1="44.0" x2="692" y2="44.0" stroke="#e5e7eb"/>
<text x="692.0" y="418" text-anchor="middle" font-family="Arial" font-size="11" fill="#4b5563">1.00</text>
<text x="54" y="48.0" text-anchor="end" font-family="Arial" font-size="11" fill="#4b5563">1.00</text>
<line x1="62" y1="398" x2="692" y2="398" stroke="#111827"/>
<line x1="62" y1="44" x2="62" y2="398" stroke="#111827"/>
<line x1="62" y1="398" x2="692" y2="44" stroke="#6b7280" stroke-width="1.4" stroke-dasharray="6 5"/>
<text x="360.0" y="442" text-anchor="middle" font-family="Arial" font-size="13" fill="#374151">Z_s</text>
<text x="18" y="221.0" transform="rotate(-90 18 221.0)" text-anchor="middle" font-family="Arial" font-size="13" fill="#374151">Empirical CDF</text>
<polyline points="63.0,397.6 76.8,391.6 88.5,385.6 99.6,379.6 107.7,373.6 118.5,367.6 129.2,361.5 146.9,355.5 153.3,349.9 162.4,343.8 171.0,337.8 177.6,331.8 189.5,325.8 197.6,319.8 209.0,313.7 221.1,307.7 231.2,301.7 245.7,295.7 253.7,289.7 265.7,283.7 274.8,277.6 283.0,271.6 292.5,265.6 306.3,259.9 320.6,253.9 331.7,247.9 339.2,241.9 348.6,235.9 355.6,229.8 367.7,223.8 376.1,217.8 394.6,211.8 409.6,205.8 425.6,199.8 435.8,193.7 446.7,187.7 459.8,181.7 472.5,176.0 481.6,170.0 492.4,164.0 502.8,158.0 510.9,152.0 521.4,146.0 530.9,139.9 543.1,133.9 548.3,127.9 565.2,121.9 577.0,115.9 586.4,109.8 594.0,103.8 602.8,97.8 615.2,91.8 624.0,86.1 633.1,80.1 638.9,74.1 650.8,68.1 662.2,62.1 670.2,56.0 680.0,50.0 690.7,44.0" fill="none" stroke="#4c78a8" stroke-width="2" stroke-linecap="round"/>
<polyline points="62.6,397.6 74.9,391.6 86.2,385.6 93.0,379.6 104.1,373.6 118.0,367.6 122.3,361.5 131.5,355.5 146.1,349.9 162.1,343.8 173.8,337.8 186.0,331.8 197.0,325.8 209.5,319.8 221.5,313.7 231.9,307.7 243.5,301.7 252.8,295.7 264.3,289.7 274.2,283.7 282.2,277.6 294.0,271.6 310.2,265.6 317.6,259.9 325.4,253.9 333.7,247.9 344.5,241.9 352.2,235.9 358.8,229.8 366.5,223.8 380.2,217.8 391.0,211.8 399.2,205.8 419.3,199.8 427.9,193.7 437.5,187.7 447.6,181.7 454.5,176.0 464.9,170.0 479.0,164.0 490.9,158.0 500.4,152.0 508.5,146.0 519.0,139.9 529.1,133.9 537.2,127.9 547.5,121.9 556.8,115.9 565.1,109.8 576.3,103.8 586.8,97.8 598.7,91.8 606.1,86.1 617.7,80.1 633.5,74.1 648.0,68.1 660.5,62.1 669.6,56.0 679.4,50.0 691.8,44.0" fill="none" stroke="#f58518" stroke-width="2" stroke-linecap="round"/>
<polyline points="66.0,397.6 82.0,391.6 93.3,385.6 100.1,379.6 110.6,373.6 118.6,367.6 127.0,361.5 138.6,355.5 154.4,349.9 162.3,343.8 176.3,337.8 185.7,331.8 198.3,325.8 210.3,319.8 219.0,313.7 229.6,307.7 237.8,301.7 250.7,295.7 261.6,289.7 270.4,283.7 281.8,277.6 296.7,271.6 305.6,265.6 314.6,259.9 323.2,253.9 333.7,247.9 340.3,241.9 350.1,235.9 356.8,229.8 366.4,223.8 378.2,217.8 389.5,211.8 396.5,205.8 406.9,199.8 419.5,193.7 435.5,187.7 446.1,181.7 458.1,176.0 467.2,170.0 478.2,164.0 491.3,158.0 500.5,152.0 510.7,146.0 521.4,139.9 531.0,133.9 538.3,127.9 548.8,121.9 560.2,115.9 571.8,109.8 584.1,103.8 594.1,97.8 606.6,91.8 615.4,86.1 629.9,80.1 637.5,74.1 647.8,68.1 659.6,62.1 670.9,56.0 680.3,50.0 691.4,44.0" fill="none" stroke="#54a24b" stroke-width="2" stroke-linecap="round"/>
<polyline points="63.5,397.6 77.4,391.6 93.4,385.6 107.5,379.6 116.2,373.6 123.6,367.6 132.6,361.5 140.2,355.5 149.4,349.9 158.3,343.8 170.1,337.8 177.1,331.8 186.5,325.8 198.8,319.8 208.1,313.7 218.9,307.7 231.0,301.7 236.4,295.7 248.5,289.7 258.3,283.7 270.8,277.6 282.8,271.6 291.2,265.6 300.7,259.9 312.6,253.9 326.4,247.9 334.8,241.9 344.4,235.9 355.0,229.8 367.8,223.8 380.1,217.8 389.9,211.8 403.8,205.8 411.6,199.8 421.3,193.7 427.4,187.7 438.8,181.7 447.2,176.0 464.0,170.0 476.0,164.0 490.3,158.0 498.2,152.0 510.7,146.0 519.7,139.9 531.3,133.9 545.4,127.9 553.4,121.9 566.4,115.9 578.1,109.8 585.8,103.8 596.3,97.8 605.6,91.8 617.1,86.1 630.9,80.1 639.4,74.1 650.5,68.1 660.9,62.1 672.0,56.0 681.6,50.0 691.2,44.0" fill="none" stroke="#b279a2" stroke-width="2" stroke-linecap="round"/>
<line x1="72" y1="58" x2="96" y2="58" stroke="#4c78a8" stroke-width="3"/>
<text x="103" y="62" font-family="Arial" font-size="12" fill="#111827">MT19937</text>
<line x1="72" y1="77" x2="96" y2="77" stroke="#f58518" stroke-width="3"/>
<text x="103" y="81" font-family="Arial" font-size="12" fill="#111827">PCG64</text>
<line x1="72" y1="96" x2="96" y2="96" stroke="#54a24b" stroke-width="3"/>
<text x="103" y="100" font-family="Arial" font-size="12" fill="#111827">Philox</text>
<line x1="72" y1="115" x2="96" y2="115" stroke="#b279a2" stroke-width="3"/>
<text x="103" y="119" font-family="Arial" font-size="12" fill="#111827">SFC64</text>
</svg>
